<?xml version="1.0" encoding="UTF-8" standalone="no"?><!DOCTYPE svg PUBLIC "-//W3C//DTD SVG 1.1//EN" "http://www.w3.org/Graphics/SVG/1.1/DTD/svg11.dtd"><svg width="100%" height="100%" viewBox="0 0 123 123" version="1.1" xmlns="http://www.w3.org/2000/svg" xmlns:xlink="http://www.w3.org/1999/xlink" xml:space="preserve" xmlns:serif="http://www.serif.com/" style="fill-rule:evenodd;clip-rule:evenodd;stroke-linecap:round;stroke-linejoin:round;stroke-miterlimit:1.5;"><rect x="0" y="0" width="122.88" height="122.88" style="fill:#00294c;"/><g><g><rect x="37.397" y="44.867" width="52.846" height="41.657" style="fill:#00294c;stroke:#fff;stroke-width:2.23px;"/><circle cx="63.82" cy="65.695" r="13.835" style="fill:#00294c;stroke:#fff;stroke-width:2.23px;"/><path d="M63.82,51.86c7.636,-0 13.835,6.199 13.835,13.835c-0,7.636 -6.199,13.836 -13.835,13.836c-7.636,-0 -13.836,-6.2 -13.836,-13.836c0,-7.636 6.2,-13.835 13.836,-13.835Zm1.694,24.946c2.947,-0.45 5.595,-2.053 7.361,-4.455l-3.967,-5.981l-3.394,10.436Zm-9.32,-2.854c2.191,2.022 5.095,3.091 8.075,2.972l2.198,-6.831l-10.273,3.859Zm17.342,-2.607c1.498,-2.578 1.91,-5.645 1.147,-8.527l-7.146,-0.662l5.999,9.189Zm-20.927,-6.462c-0.214,2.973 0.761,5.911 2.712,8.165l6.712,-2.541l-9.424,-5.624Zm21.59,-3.5c-1.145,-2.753 -3.337,-4.939 -6.093,-6.076l-4.853,5.287l10.946,0.789Zm-7.058,-6.425c-2.848,-0.88 -5.93,-0.593 -8.567,0.799l0.961,7.112l7.606,-7.911Zm-9.656,1.453c-2.463,1.681 -4.156,4.272 -4.709,7.202l6.164,3.675l-1.455,-10.877Z" style="fill:#fff;"/><path d="M63.82,51.86c7.636,-0 13.835,6.199 13.835,13.835c-0,7.636 -6.199,13.836 -13.835,13.836c-7.636,-0 -13.836,-6.2 -13.836,-13.836c0,-7.636 6.2,-13.835 13.836,-13.835Zm10.379,9.523c-1.145,-2.753 -3.337,-4.939 -6.093,-6.076l-4.853,5.287l10.946,0.789Zm-18.005,12.569c2.191,2.022 5.095,3.091 8.075,2.972l2.198,-6.831l-10.273,3.859Zm10.947,-18.994c-2.848,-0.88 -5.93,-0.593 -8.567,0.799l0.961,7.112l7.606,-7.911Zm-9.656,1.453c-2.463,1.681 -4.156,4.272 -4.709,7.202l6.164,3.675l-1.455,-10.877Zm8.029,20.395c2.947,-0.45 5.595,-2.053 7.361,-4.455l-3.967,-5.981l-3.394,10.436Zm-12.905,-11.923c-0.214,2.973 0.761,5.911 2.712,8.165l6.712,-2.541l-9.424,-5.624Zm20.927,6.462c1.498,-2.578 1.91,-5.645 1.147,-8.527l-7.146,-0.662l5.999,9.189Z" style="fill:#fff;"/><rect x="37.397" y="39.66" width="26.423" height="5.207" style="fill:#00294c;stroke:#fff;stroke-width:2.23px;"/></g><path d="M85.797,36.356l2.007,6.175l3.866,-1.908l-0.62,4.267l6.493,0l-5.253,3.817l3.01,3.087l-4.25,0.729l2.007,6.175l-5.253,-3.816l-2.007,3.816l-2.006,-3.816l-5.253,3.816l2.006,-6.175l-4.249,-0.729l3.009,-3.087l-5.253,-3.817l6.493,0l-0.62,-4.267l3.867,1.908l2.006,-6.175Z" style="fill:#00294c;stroke:#fff;stroke-width:2.23px;"/></g></svg>