<?xml version="1.0" encoding="UTF-8" standalone="no"?><!DOCTYPE svg PUBLIC "-//W3C//DTD SVG 1.1//EN" "http://www.w3.org/Graphics/SVG/1.1/DTD/svg11.dtd"><svg width="100%" height="100%" viewBox="0 0 123 123" version="1.1" xmlns="http://www.w3.org/2000/svg" xmlns:xlink="http://www.w3.org/1999/xlink" xml:space="preserve" xmlns:serif="http://www.serif.com/" style="fill-rule:evenodd;clip-rule:evenodd;stroke-linecap:round;stroke-linejoin:round;stroke-miterlimit:1.5;"><rect x="0" y="0" width="122.88" height="122.88" style="fill:#00294c;"/><g><g><rect x="15.683" y="32.901" width="91.002" height="71.734" style="fill:#00294c;stroke:#fff;stroke-width:2.23px;"/><circle cx="61.184" cy="68.768" r="23.825" style="fill:#00294c;stroke:#fff;stroke-width:2.23px;"/><path d="M61.184,44.943c13.149,-0 23.825,10.675 23.825,23.825c-0,13.149 -10.676,23.825 -23.825,23.825c-13.149,-0 -23.825,-10.676 -23.825,-23.825c0,-13.15 10.676,-23.825 23.825,-23.825Zm2.918,42.958c5.075,-0.775 9.635,-3.535 12.675,-7.673l-6.831,-10.298l-5.844,17.971Zm-16.05,-4.915c3.773,3.483 8.775,5.323 13.905,5.118l3.786,-11.764l-17.691,6.646Zm29.864,-4.489c2.579,-4.439 3.29,-9.722 1.974,-14.685l-12.305,-1.139l10.331,15.824Zm-36.036,-11.129c-0.37,5.121 1.31,10.179 4.67,14.062l11.557,-4.376l-16.227,-9.686Zm37.177,-6.027c-1.971,-4.74 -5.745,-8.504 -10.491,-10.462l-8.358,9.104l18.849,1.358Zm-12.153,-11.064c-4.906,-1.515 -10.212,-1.02 -14.753,1.377l1.655,12.247l13.098,-13.624Zm-16.629,2.503c-4.24,2.895 -7.156,7.356 -8.108,12.401l10.615,6.33l-2.507,-18.731Z" style="fill:#fff;"/><path d="M61.184,44.943c13.149,-0 23.825,10.675 23.825,23.825c-0,13.149 -10.676,23.825 -23.825,23.825c-13.149,-0 -23.825,-10.676 -23.825,-23.825c0,-13.15 10.676,-23.825 23.825,-23.825Zm17.873,16.398c-1.971,-4.74 -5.745,-8.504 -10.491,-10.462l-8.358,9.104l18.849,1.358Zm-18.086,9.808l1.941,-0.729l0.639,-1.967l-1.147,-1.757l-2.073,-0.149l-1.42,1.477l0.276,2.06l1.784,1.065Zm5.933,-20.872c-4.906,-1.515 -10.212,-1.02 -14.753,1.377l1.655,12.247l13.098,-13.624Zm-25.024,17.091c-0.37,5.121 1.31,10.179 4.67,14.062l11.557,-4.376l-16.227,-9.686Zm22.222,20.533c5.075,-0.775 9.635,-3.535 12.675,-7.673l-6.831,-10.298l-5.844,17.971Zm13.814,-9.404c2.579,-4.439 3.29,-9.722 1.974,-14.685l-12.305,-1.139l10.331,15.824Zm-27.641,-25.717c-4.24,2.895 -7.156,7.356 -8.108,12.401l10.615,6.33l-2.507,-18.731Zm-2.223,30.206c3.773,3.483 8.775,5.323 13.905,5.118l3.786,-11.764l-17.691,6.646Z" style="fill:#fff;"/><rect x="15.683" y="23.934" width="45.501" height="8.967" style="fill:#00294c;stroke:#fff;stroke-width:2.23px;"/></g><path d="M99.03,18.245l3.455,10.634l6.658,-3.286l-1.067,7.348l11.181,-0l-9.046,6.572l5.183,5.317l-7.318,1.255l3.455,10.634l-9.046,-6.572l-3.455,6.572l-3.455,-6.572l-9.046,6.572l3.455,-10.634l-7.318,-1.255l5.183,-5.317l-9.046,-6.572l11.181,-0l-1.067,-7.348l6.658,3.286l3.455,-10.634Z" style="fill:#00294c;stroke:#fff;stroke-width:2.23px;"/></g></svg>